<svg xmlns="http://www.w3.org/2000/svg" version="1.1" xmlns:xlink="http://www.w3.org/1999/xlink" width="2386" height="2386"><svg xmlns="http://www.w3.org/2000/svg" version="1.1" xmlns:xlink="http://www.w3.org/1999/xlink" width="2386" height="2386"><svg xmlns="http://www.w3.org/2000/svg" xmlns:xlink="http://www.w3.org/1999/xlink" width="2386" height="2386" viewBox="0 0 2386 2386"><path fill="#E07A5F" transform="scale(1.16498 1.16498)" d="M1043.06 733.452C1045.04 730.457 1047.09 727.51 1049.22 724.614C1069.31 697.676 1106.03 668.28 1134.44 650.1C1242.48 580.966 1356.64 556.754 1481.34 538.565L1482.36 865.961C1482.44 994.039 1481.25 1123.84 1482.81 1251.82C1349.86 1266.38 1216.1 1296.4 1101.94 1369.73C1092.95 1338.61 1092.18 1319.93 1090.35 1288.24C1046.97 1287.44 1000.98 1288.2 957.358 1288.27C956.535 1321.44 953.094 1337.74 945.053 1368.93C854.395 1315.09 754.359 1278.89 650.233 1262.27C621.685 1257.43 592.308 1256.28 565.71 1251.67L564.94 755.569C564.555 701.274 564.617 646.976 565.126 592.681C565.25 580.756 564.03 551.893 566.085 542.738C566.325 541.667 566.465 540.648 567.558 540.168C574.785 536.995 689.66 560.515 702.112 563.517C796.838 586.357 895.662 625.965 968.324 692.69C981.01 704.34 995.614 718.555 1004.7 733.407C1003.66 748.987 1002.03 760.558 998.64 776.006C985.65 838.756 961.092 908.817 925.6 962.619C910.383 985.685 892.93 1006.2 874.64 1026.81C917.478 1099.13 947.283 1169.71 955.393 1254.23C1001.13 1255.47 1046.89 1255.85 1092.64 1255.39C1102.18 1170.43 1127.4 1098.22 1174 1025.94C1112.89 967.391 1076.69 887.437 1056.36 806.432C1050.25 782.105 1045.11 758.474 1043.06 733.452Z"></path><path fill="#E07A5F" transform="scale(1.16498 1.16498)" d="M1529.68 635.919C1564.42 632.71 1603.02 628.5 1637.62 627.341L1637.84 1106.19L1637.66 1308C1637.58 1341.35 1638.03 1376.65 1637.28 1409.88C1587.09 1408.92 1540.32 1405.82 1489.14 1406.33C1402.39 1407.32 1316 1417.82 1231.53 1437.65C1219.19 1440.5 1186.39 1446.92 1177.42 1454.32C1172.03 1458.77 1162.51 1480.69 1156.72 1489.36C1127.62 1533.1 1078.45 1559.24 1025.92 1558.91C964.374 1558.17 909.923 1527.49 881.959 1473C878.395 1466.06 874.455 1458.03 870.458 1451.43C849.275 1444.71 826.68 1440.02 804.983 1435.04C676.295 1405.51 542.288 1400.37 410.833 1410.23L410.458 924.311L410.801 700.329C410.862 676.436 409.997 651.401 410.374 627.787C438.93 627.815 488.757 632.789 518.398 636.327L519.649 1296.68C633.324 1301.94 734.285 1322.01 839.565 1367.4C868.791 1380 903.437 1396.72 929.431 1414.97C938.256 1445.9 947.845 1465.55 976.801 1482.32C1022.38 1508.73 1082.79 1490.82 1108.05 1445.02C1109.06 1443.2 1111.45 1438.49 1111.78 1436.61C1113.78 1432.36 1115.19 1428.15 1115.97 1423.52C1117.59 1419.39 1117.88 1418.09 1118.67 1413.71C1145.48 1398.9 1172.03 1383.39 1199.95 1370.81C1304.72 1323.62 1415.09 1300.79 1529.44 1297.42L1529.64 849.333C1529.66 778.85 1528.79 706.247 1529.68 635.919Z"></path><path fill="#E07A5F" transform="scale(1.16498 1.16498)" d="M1011.92 733.732C1020.09 734.214 1028.28 734.426 1036.47 734.367C1037.85 826.652 1035.24 920.854 1036.54 1013.55C1065.91 1030.59 1062.53 1070.79 1032.09 1077.15C1022.87 1079.14 1013.23 1077.21 1005.48 1071.83C990.15 1061.2 985.326 1041.02 997.42 1026.28C1002.31 1020.32 1005.49 1018.36 1011.67 1014.2L1011.56 994.802L1011.2 809.06C1011.15 797.671 1009.49 741.622 1011.92 733.732Z"></path><path fill="#E07A5F" transform="scale(1.16498 1.16498)" d="M1004.7 733.407L1011.92 733.732C1009.49 741.622 1011.15 797.671 1011.2 809.06L1011.56 994.802C1004.4 978.293 1008.82 859.636 1006.97 832.84C1005.76 837.605 1004.8 842.152 1003.8 846.95L1002.69 847.536C1002.53 828.045 1001.47 806.855 1002.84 787.532C1003.22 782.163 1004.17 782.141 1001.41 776.774L998.64 776.006C1002.03 760.558 1003.66 748.987 1004.7 733.407ZM1007.49 795.5C1007.53 789.701 1008.93 760.218 1005.7 757.488C1004.66 767.061 1005.22 783.544 1005.72 793.473C1006.21 794.077 1006.92 795.072 1007.49 795.5Z"></path><defs><linearGradient id="gradient_0" gradientUnits="userSpaceOnUse" x1="1112.8618" y1="1420.7507" x2="1109.171" y2="1420.0712"><stop offset="0" stop-color="#F9F9F9" stop-opacity="0"></stop><stop offset="1" stop-color="#F9F9F9" stop-opacity="0.035294119"></stop></linearGradient></defs><path fill="url(#gradient_0)" transform="scale(1.16498 1.16498)" d="M1111.78 1436.61C1110.44 1428.79 1103.51 1424.01 1108.15 1416.29C1111.83 1415.56 1112.12 1415.18 1114.78 1412.83L1115.69 1413.56C1115.56 1417.26 1115.73 1419.81 1115.97 1423.52C1115.19 1428.15 1113.78 1432.36 1111.78 1436.61Z"></path></svg></svg><style>@media (prefers-color-scheme: light) { :root { filter: none; } }
@media (prefers-color-scheme: dark) { :root { filter: none; } }
</style></svg>